# xmcd CD database file
#
# Track frame offsets:
#	150
#	13490
#	31092
#	51582
#	70010
#	86489
#	99622
#	112394
#	131059
#	141739
#	157663
#	171560
#	188760
#	198502
#	217177
#	233331
#	251392
#	265538
#	282596
#	296190
#	310993
#	325115
#	336833
#
# Disc length: 4654 seconds
#
# Revision: 1
# Processed by: cddbd v1.5.2PL0 Copyright (c) Steve Scherf et al.
# Submitted via: CDex 1.51
#
DISCID=69122c17
DTITLE=Various Artits - 05
DYEAR=2007
DGENRE=Country
TTITLE0=Hillbilly Band
TTITLE1=29 Nights
TTITLE2=That Don't Impress Me Much
TTITLE3=Whisky Girl
TTITLE4=Honktonk U
TTITLE5=Cowboy Cadillac
TTITLE6=Dallas Days And Fort Worth Nights
TTITLE7=Honky Tonk World
TTITLE8=Just Between You And Me
TTITLE9=Hickety Bickety
TTITLE10=Cadillac Tears
TTITLE11=Soul To Soul
TTITLE12=Hello Trouble Mixer
TTITLE13=Country Is My Rock
TTITLE14=Cheatin' On My Honky-Tonk
TTITLE15=Hey Batter Batter
TTITLE16=The Next Time
TTITLE17=A Good Run
TTITLE18=Cold Beer, Hot Woman and Cool Country Music
TTITLE19=Soldier Of Love
TTITLE20=The Parfect Woman
TTITLE21=No Part Of
TTITLE22=What's Not To Love
EXTD=YEAR: 2007
EXTT0=
EXTT1=
EXTT2=
EXTT3=
EXTT4=
EXTT5=
EXTT6=
EXTT7=
EXTT8=
EXTT9=
EXTT10=
EXTT11=
EXTT12=
EXTT13=
EXTT14=
EXTT15=
EXTT16=
EXTT17=
EXTT18=
EXTT19=
EXTT20=
EXTT21=
EXTT22=
PLAYORDER=
